HIERARCHY
ROOT Hips
{
	OFFSET 0.00000 0.00000 0.00000
	CHANNELS 6 Xposition Yposition Zposition Zrotation Yrotation Xrotation 
	JOINT LHipJoint
	{
		OFFSET 0 0 0
		CHANNELS 3 Zrotation Yrotation Xrotation
		JOINT LeftUpLeg
		{
			OFFSET 1.86795 -1.59681 0.65681
			CHANNELS 3 Zrotation Yrotation Xrotation
			JOINT LeftLeg
			{
				OFFSET 2.30491 -6.33268 0.00000
				CHANNELS 3 Zrotation Yrotation Xrotation
				JOINT LeftFoot
				{
					OFFSET 2.46780 -6.78022 0.00000
					CHANNELS 3 Zrotation Yrotation Xrotation
					JOINT LeftToeBase
					{
						OFFSET 0.07897 -0.21698 1.59652
						CHANNELS 3 Zrotation Yrotation Xrotation
						End Site
						{
							OFFSET 0.00000 -0.00000 0.82310
						}
					}
				}
			}
		}
	}
	JOINT RHipJoint
	{
		OFFSET 0 0 0
		CHANNELS 3 Zrotation Yrotation Xrotation
		JOINT RightUpLeg
		{
			OFFSET -1.93650 -1.59681 0.65681
			CHANNELS 3 Zrotation Yrotation Xrotation
			JOINT RightLeg
			{
				OFFSET -2.29410 -6.30299 0.00000
				CHANNELS 3 Zrotation Yrotation Xrotation
				JOINT RightFoot
				{
					OFFSET -2.48738 -6.83403 0.00000
					CHANNELS 3 Zrotation Yrotation Xrotation
					JOINT RightToeBase
					{
						OFFSET -0.08699 -0.23899 1.89395
						CHANNELS 3 Zrotation Yrotation Xrotation
						End Site
						{
							OFFSET -0.00000 -0.00000 0.96904
						}
					}
				}
			}
		}
	}
	JOINT LowerBack
	{
		OFFSET 0 0 0
		CHANNELS 3 Zrotation Yrotation Xrotation
		JOINT Spine
		{
			OFFSET 0.03629 1.99740 -0.07548
			CHANNELS 3 Zrotation Yrotation Xrotation
			JOINT Spine1
			{
				OFFSET 0.03970 1.94298 0.17218
				CHANNELS 3 Zrotation Yrotation Xrotation
				JOINT Neck
				{
					OFFSET 0 0 0
					CHANNELS 3 Zrotation Yrotation Xrotation
					JOINT Neck1
					{
						OFFSET -0.05054 1.79469 0.04241
						CHANNELS 3 Zrotation Yrotation Xrotation
						JOINT Head
						{
							OFFSET 0.05195 1.78475 -0.22133
							CHANNELS 3 Zrotation Yrotation Xrotation
							End Site
							{
								OFFSET 0.02420 1.80711 -0.07950
							}
						}
					}
				}
				JOINT LeftShoulder
				{
					OFFSET 0 0 0
					CHANNELS 3 Zrotation Yrotation Xrotation
					JOINT LeftArm
					{
						OFFSET 2.92134 1.19850 0.36056
						CHANNELS 3 Zrotation Yrotation Xrotation
						JOINT LeftForeArm
						{
							OFFSET 4.84137 -0.00000 0.00000
							CHANNELS 3 Zrotation Yrotation Xrotation
							JOINT LeftHand
							{
								OFFSET 3.24520 -0.00000 -0.00000
								CHANNELS 3 Zrotation Yrotation Xrotation
								JOINT LeftFingerBase
								{
									OFFSET 0 0 0
									CHANNELS 3 Zrotation Yrotation Xrotation
									JOINT LeftHandIndex1
									{
										OFFSET 0.52122 -0.00000 0.00000
										CHANNELS 3 Zrotation Yrotation Xrotation
										End Site
										{
											OFFSET 0.42022 -0.00000 0.00000
										}
									}
								}
								JOINT LThumb
								{
									OFFSET 0 0 0
									CHANNELS 3 Zrotation Yrotation Xrotation
									End Site
									{
										OFFSET 0.42664 -0.00000 0.42664
									}
								}
							}
						}
					}
				}
				JOINT RightShoulder
				{
					OFFSET 0 0 0
					CHANNELS 3 Zrotation Yrotation Xrotation
					JOINT RightArm
					{
						OFFSET -2.84327 1.20795 0.50191
						CHANNELS 3 Zrotation Yrotation Xrotation
						JOINT RightForeArm
						{
							OFFSET -4.72284 -0.00000 0.00000
							CHANNELS 3 Zrotation Yrotation Xrotation
							JOINT RightHand
							{
								OFFSET -3.23459 -0.00000 0.00000
								CHANNELS 3 Zrotation Yrotation Xrotation
								JOINT RightFingerBase
								{
									OFFSET 0 0 0
									CHANNELS 3 Zrotation Yrotation Xrotation
									JOINT RightHandIndex1
									{
										OFFSET -0.30742 -0.00000 0.00000
										CHANNELS 3 Zrotation Yrotation Xrotation
										End Site
										{
											OFFSET -0.24785 -0.00000 0.00000
										}
									}
								}
								JOINT RThumb
								{
									OFFSET 0 0 0
									CHANNELS 3 Zrotation Yrotation Xrotation
									End Site
									{
										OFFSET -0.25163 -0.00000 0.25163
									}
								}
							}
						}
					}
				}
			}
		}
	}
}
MOTION
Frames: 7
Frame Time: .0083333
13.0744 16.6352 -12.3202 0 0 0 0 0 0 -21 0 0 0 0 0 0 0 0 0 0 0 0 0 0 21 0 0 0 0 0 0 0 0 0 0 0 0 0 0 0 0 0 0 0 0 0 0 -16 0 0 21 0 0 11 0 0 0 -8 0 0 0 0 0 0 0 0 0 0 0 0 0 0 0 0 0 0 0 0 8 0 0 0 0 0 0 0 0 0 0 0 0 0 0 0 0 0
13.0744 16.6352 -12.3202 -2.0182 -16.2352 10.8489 0.0000 0.0000 0.0000 -16.2289 -23.5373 3.3680 0.2142 2.9794 8.2214 1.8174 13.4149 -33.2839 4.1371 12.3407 36.9481 0.0000 0.0000 0.0000 20.0491 39.4669 2.7962 -0.1985 -2.8688 7.9138 4.5939 -35.8858 -25.2682 -1.0821 -6.6116 18.5697 3.3926 0.1902 -5.6727 1.4425 0.1573 -6.7256 -0.4030 -0.0494 -3.7749 -3.2491 4.3428 -1.7171 8.1182 4.8764 17.0219 3.2978 2.6855 5.0751 -0.0000 0.0000 0.0000 -87.8199 15.3872 36.4104 16.8310 -26.6345 -4.0113 -0.0000 -0.0000 28.5127 -14.6195 40.6208 -9.6382 -7.1250 0.0000 -0.0000 -58.8507 60.8559 -28.0244 -0.0000 0.0000 0.0000 82.2188 -10.9414 58.8383 -15.2560 24.5016 -3.3314 0.0000 -0.0000 -6.2538 -15.7076 17.8797 -4.9348 7.1250 -0.0000 -0.0000 8.0822 -11.5934 6.3583
13.0726 16.6367 -12.3181 -1.9904 -16.2565 10.8598 0.0000 0.0000 0.0000 -16.2406 -23.5135 3.3756 0.2116 2.9614 8.1713 1.8238 13.3701 -33.2859 4.0886 12.2774 36.7205 0.0000 0.0000 0.0000 20.0060 39.4968 2.7554 -0.2015 -2.8907 7.9745 4.6802 -36.0538 -24.9614 -0.9545 -6.2216 17.4287 3.3435 0.1541 -5.7008 1.4832 0.1095 -6.7121 -0.3347 -0.0697 -3.7462 -3.2599 4.3983 -1.8210 8.1638 4.9405 17.1694 3.3234 2.7220 5.1327 -0.0000 -0.0000 0.0000 -87.9279 15.3866 36.2352 16.8610 -26.6742 -4.0248 -0.0000 -0.0000 28.5239 -14.6722 40.4282 -9.6365 -7.1250 0.0000 -0.0000 -58.6265 60.7278 -27.6957 -0.0000 -0.0000 0.0000 82.1053 -10.9218 59.0249 -15.2844 24.5408 -3.3432 0.0000 -0.0000 -6.2497 -15.9324 17.8258 -4.9943 7.1250 -0.0000 -0.0000 7.9328 -11.6244 6.2332
13.0718 16.6363 -12.3223 -2.0905 -16.2407 10.9790 0.0000 0.0000 0.0000 -16.1277 -23.6035 3.1161 0.2262 3.0612 8.4493 1.8473 13.2763 -33.3479 4.1033 12.2966 36.7893 0.0000 0.0000 0.0000 20.0395 39.4763 2.7981 -0.1843 -2.7652 7.6258 4.6666 -36.0214 -24.9808 -0.9497 -6.2062 17.3839 3.4387 0.1530 -5.6819 1.5057 0.1079 -6.7542 -0.3644 -0.0754 -3.8018 -3.2605 4.3990 -1.8603 8.2119 4.9268 17.3200 3.3435 2.7200 5.1851 0.0000 -0.0000 0.0000 -87.9208 15.4167 36.1924 16.8855 -26.7066 -4.0358 -0.0000 -0.0000 28.5561 -14.6587 40.3319 -9.6088 -7.1250 0.0000 -0.0000 -58.4818 60.6738 -27.5238 0.0000 -0.0000 0.0000 82.0761 -10.9431 59.1037 -15.3225 24.5935 -3.3590 0.0000 -0.0000 -6.2339 -15.9372 17.9328 -5.0248 7.1250 -0.0000 -0.0000 7.9329 -11.5147 6.2514
13.0702 16.6352 -12.3287 -2.2602 -16.2426 11.1192 0.0000 0.0000 0.0000 -15.8937 -23.6298 2.9173 0.2314 3.0962 8.5468 1.8508 13.2281 -33.3304 4.1331 12.3354 36.9291 0.0000 0.0000 0.0000 20.1560 39.5327 2.7290 -0.1777 -2.7151 7.4865 4.6952 -36.0732 -24.8572 -0.9688 -6.2667 17.5601 3.6173 0.1790 -5.6387 1.5212 0.1413 -6.8016 -0.4469 -0.0677 -3.8760 -3.2305 4.3822 -1.7386 8.2070 4.9033 17.2494 3.3306 2.7072 5.1450 0.0000 0.0000 0.0000 -87.8585 15.4505 36.2376 16.9165 -26.7475 -4.0497 -0.0000 -0.0000 28.4984 -14.5340 40.5015 -9.5575 -7.1250 0.0000 -0.0000 -58.6122 60.8071 -27.7954 0.0000 0.0000 0.0000 82.1379 -10.9503 59.0889 -15.3214 24.5920 -3.3586 0.0000 -0.0000 -6.3048 -15.9797 18.1515 -5.0979 7.1250 -0.0000 -0.0000 7.9122 -11.2870 6.2722
13.0681 16.6357 -12.3294 -2.3599 -16.2011 11.1910 0.0000 0.0000 0.0000 -15.7536 -23.6592 2.8808 0.2305 3.0902 8.5301 1.8063 13.3991 -33.2070 4.0399 12.2133 36.4909 0.0000 0.0000 0.0000 20.2454 39.5279 2.6793 -0.1768 -2.7084 7.4680 4.7324 -36.1495 -24.7400 -0.9738 -6.2822 17.6054 3.7720 0.2055 -5.6493 1.5094 0.1717 -6.8056 -0.5448 -0.0597 -3.8740 -3.2360 4.3470 -1.5747 8.2107 4.8648 17.0015 3.3194 2.6833 5.0426 0.0000 0.0000 0.0000 -87.8081 15.4588 36.2857 16.9621 -26.8078 -4.0702 -0.0000 -0.0000 28.4394 -14.4452 40.5077 -9.4989 -7.1250 0.0000 -0.0000 -58.5462 60.8337 -27.7876 0.0000 0.0000 0.0000 82.2349 -10.9448 58.9826 -15.3086 24.5742 -3.3532 0.0000 -0.0000 -6.3938 -16.0687 18.1090 -5.1161 7.1250 -0.0000 -0.0000 7.8524 -11.3207 6.2183
13.0647 16.6366 -12.3286 -2.2435 -16.1820 11.2319 0.0000 0.0000 0.0000 -15.8180 -23.7101 2.8313 0.2284 3.0761 8.4907 1.7697 13.5627 -33.1235 4.0339 12.2054 36.4627 0.0000 0.0000 0.0000 20.0669 39.5171 2.5641 -0.1779 -2.7167 7.4909 4.6860 -36.0683 -24.9570 -1.0054 -6.3804 17.8923 3.6751 0.2266 -5.7257 1.4542 0.1972 -6.8034 -0.5473 -0.0433 -3.8273 -3.2071 4.3055 -1.4718 8.2083 4.8158 16.7871 3.3031 2.6574 4.9629 0.0000 0.0000 0.0000 -87.7737 15.4574 36.2924 16.9945 -26.8505 -4.0848 -0.0000 -0.0000 28.5183 -14.4615 40.3984 -9.4890 -7.1250 0.0000 -0.0000 -58.4081 60.7643 -27.5989 0.0000 0.0000 0.0000 82.2827 -10.9464 58.8500 -15.3332 24.6083 -3.3635 0.0000 -0.0000 -6.3492 -15.9379 17.8959 -5.0150 7.1250 -0.0000 -0.0000 7.9314 -11.5523 6.2440
